<?xml version="1.0" standalone="no"?>
<!DOCTYPE svg PUBLIC "-//W3C//DTD SVG 20010904//EN"
 "http://www.w3.org/TR/2001/REC-SVG-20010904/DTD/svg10.dtd">
<svg version="1.0" xmlns="http://www.w3.org/2000/svg"
 width="512.000000pt" height="512.000000pt" viewBox="0 0 512.000000 512.000000"
 preserveAspectRatio="xMidYMid meet">

<g transform="translate(0.000000,512.000000) scale(0.100000,-0.100000)"
fill="#ffffff" stroke="none">
<path d="M4885 4926 c-56 -18 -4769 -2194 -4808 -2220 -47 -32 -72 -82 -71
-146 0 -65 21 -109 66 -143 18 -13 1109 -520 2423 -1127 2244 -1035 2393
-1102 2442 -1102 87 2 152 51 173 131 25 93 61 39 -796 1182 l-794 1059 794
1059 c864 1151 823 1091 797 1187 -10 39 -56 92 -96 111 -36 18 -89 22 -130 9z"/>
</g>
</svg>
